<?xml version="1.0" encoding="UTF-8" standalone="no"?>
<svg
   xmlns:osb="http://www.openswatchbook.org/uri/2009/osb"
   xmlns:dc="http://purl.org/dc/elements/1.1/"
   xmlns:cc="http://creativecommons.org/ns#"
   xmlns:rdf="http://www.w3.org/1999/02/22-rdf-syntax-ns#"
   xmlns:svg="http://www.w3.org/2000/svg"
   xmlns="http://www.w3.org/2000/svg"
   version="1.1"
   id="svg2"
   viewBox="0 0 1024 1024"
   height="1024"
   width="1024">
  <defs
     id="defs4">
    <linearGradient
       osb:paint="solid"
       id="linearGradient5840">
      <stop
         id="stop5842"
         offset="0"
         style="stop-color:#bd9a9a;stop-opacity:1;" />
    </linearGradient>
  </defs>
  <metadata
     id="metadata7">
    <rdf:RDF>
      <cc:Work
         rdf:about="">
        <dc:format>image/svg+xml</dc:format>
        <dc:type
           rdf:resource="http://purl.org/dc/dcmitype/StillImage" />
        <dc:title></dc:title>
      </cc:Work>
    </rdf:RDF>
  </metadata>
  <g
     style="display:inline"
     transform="translate(0,-28.362161)"
     id="layer1">
    <flowRoot
       transform="matrix(-1,0,0,1,944.51328,0)"
       style="font-style:normal;font-weight:normal;font-size:40px;line-height:125%;font-family:sans-serif;letter-spacing:0px;word-spacing:0px;fill:#000000;fill-opacity:1;stroke:none;stroke-width:1px;stroke-linecap:butt;stroke-linejoin:miter;stroke-opacity:1"
       id="flowRoot4136"
       xml:space="preserve"><flowRegion
         id="flowRegion4138"><rect
           transform="scale(-1,1)"
           y="387.86963"
           x="-895.83252"
           height="260.44211"
           width="219.06346"
           id="rect4140" /></flowRegion><flowPara
         id="flowPara4142" /></flowRoot>    <g
       transform="matrix(1.2794438,-0.44067553,0.34691108,1.007211,-373.53803,-89.955332)"
       id="g4154"
       style="fill:none;fill-opacity:1;stroke:#000000;stroke-opacity:1">
      <g
         id="g5918">
        <path
           id="path4150"
           d="M 341.55761,415.50901 C 140.16057,681.09632 174.41964,835.78541 90.851244,1045.924 130.37064,985.24427 153.0461,973.32293 224.7244,819.55849 326.5613,902.02676 406.88879,790.91277 490.03438,705.15927 481.00319,562.36802 391.84149,511.15432 341.55761,415.50901 Z m 4.86835,82.75591 c 34.83141,53.98276 79.82809,102.88317 77.88929,175.25103 -55.51787,84.51817 -115.70725,94.30199 -177.68543,75.45516 14.3945,-41.41014 2.87521,-84.2683 26.52118,-142.72585 12.47894,-30.85041 48.80141,-64.28971 73.27496,-107.98034 z"
           style="fill:#a4739d;fill-opacity:1;fill-rule:evenodd;stroke:none;stroke-width:1.20064366px;stroke-linecap:butt;stroke-linejoin:miter;stroke-opacity:1" />
      </g>
    </g>
    <path
       style="fill:#ff80e5;fill-opacity:1;fill-rule:evenodd;stroke:none;stroke-width:1px;stroke-linecap:butt;stroke-linejoin:miter;stroke-opacity:1"
       d="M 368.92914,465.86323 C 353.34786,357.95889 306.05763,316.05953 217.87975,347.35666 c -6.34103,2.25066 -10.24911,6.85022 -16.95937,9.8088 19.33655,83.41211 42.67949,155.08177 168.00876,108.69777 z"
       id="path4378" />
    <path
       id="path4294"
       d="m 786.54152,534.8843 c -13.97448,4.77143 -22.55989,3.78685 -34.49415,18.7594 -13.72159,24.6548 -25.60769,67.63856 -41.37866,71.80414 -23.42983,-22.64387 -16.15297,-50.94171 -18.10764,-77.23747 0,-3.00179 -21.53182,-3.41539 -27.78263,10.59671 -1.64059,46.61261 24.39773,80.09127 22.76691,122.62364 l -46.39439,71.95179 c -22.09995,-33.2495 -16.54068,-94.48916 -11.30963,-111.54816 -36.8351,-34.53215 -61.32195,13.53348 -59.12983,26.06151 l 47.46375,119.26789 -21.90635,45.17736 c -22.54379,-12.41492 -40.76365,-96.64374 -50.6107,-140.96543 -26.71442,-11.67501 -36.475,4.48434 -47.46375,19.76762 20.40597,52.01942 45.64276,123.61153 57.91282,149.18925 -3.48868,20.768 -15.53121,33.03394 -25.55741,45.02972 -2.98467,17.74755 5.37873,25.12264 13.53486,30.78194 44.07149,-15.07907 55.97934,-52.30576 81.39264,-81.89675 123.87662,-17.92555 165.04927,-35.09431 178.95646,-46.2966 6.14304,-4.94824 1.22354,-14.34556 1.22354,-14.34556 -42.1267,-6.65554 -98.21063,5.29855 -147.32048,7.95387 4.77373,-24.91956 30.75258,-68.38763 57.49879,-92.93242 5.45463,-5.00568 15.27979,-8.50691 20.71108,-11.96537 16.86022,0.41136 36.96674,-0.47579 65.25075,-4.63394 28.23014,-18.74983 27.29545,-19.00971 30.06904,-50.906 -21.328,-3.24779 -32.06227,-4.02952 -44.13782,3.92247 0,0 -20.72007,9.43494 -42.98347,8.39537 8.61469,-32.17514 38.88994,-80.16275 54.94287,-103.49685 3.26707,-4.74893 -8.42563,-12.07558 -13.1466,-15.05813 z"
       style="fill:#a4739d;fill-opacity:1;fill-rule:evenodd;stroke:none;stroke-width:1px;stroke-linecap:butt;stroke-linejoin:miter;stroke-opacity:1" />
    <g
       transform="translate(-71.615327,-2.8350526)"
       id="g5928">
      <path
         style="fill:#a4739d;fill-opacity:1;fill-rule:evenodd;stroke:none;stroke-width:1px;stroke-linecap:butt;stroke-linejoin:miter;stroke-opacity:1"
         d="m 626.16466,183.39896 c 15.5827,-75.13468 201.14107,-61.9642 230.01967,9.12776 24.94687,61.41302 -72.73893,100.11837 -136.91647,144.21868 61.78765,-29.67774 168.99967,-95.97121 204.46193,-36.51105 52.57335,88.1506 -121.30081,162.12977 -191.68306,240.97298 L 823.32438,367.7798 c -52.94104,13.87705 -121.37421,68.90158 -153.12498,24.5801 -11.73074,-56.3335 -25.70897,-68.77347 69.14954,-165.14767 -31.97521,17.03646 -121.39992,-4.20012 -113.18428,-43.81327 z"
         id="path4335" />
      <circle
         style="fill:#ff80e5;fill-opacity:1;stroke:none;stroke-width:1;stroke-miterlimit:4;stroke-dasharray:none;stroke-opacity:1"
         id="path4339"
         cx="682.75684"
         cy="183.39897"
         r="5.4766588" />
    </g>
  </g>
</svg>
